<svg width="40" height="40" viewBox="0 0 40 40" fill="none" xmlns="http://www.w3.org/2000/svg">
<path d="M36.9211 15.3817V21.5363H33.8423V24.6151H24.6151V21.5363H21.5363V18.4574H18.4574V21.5363H15.3817V24.6151H6.15143V21.5363H3.07256V15.3817H0V27.6909H3.07256V33.8423H6.15143V36.9211H12.306V40H27.6908V36.9211H33.8423V33.8423H36.9211V27.6909H40V15.3817H36.9211Z" fill="#FFD600"/>
<path d="M36.9211 12.306V6.15141H33.8423V3.07254H27.6908V0H12.306V3.07254H6.15144V6.15141H3.07257V12.306H36.9211Z" fill="#FFD600"/>
<path d="M30.7697 27.6909H27.6909V30.7698H30.7697V27.6909Z" fill="#502A1B"/>
<path d="M27.6876 30.7666H15.3817V33.8423H27.6876V30.7666Z" fill="#502A1B"/>
<path d="M0 12.306V15.3817H3.07256V21.5363H6.15143V15.3817H12.306V18.4574H9.23029V21.5363H6.15143V24.6152H15.3817V21.5363H18.4574V18.4574H21.5363V21.5363H24.6151V15.3817H30.7665V18.4574H27.6908V21.5363H24.6151V24.6152H33.8423V21.5363H36.9211V15.3817H40V12.306H0Z" fill="black"/>
<path d="M24.6151 15.3817V21.5363H27.6908V18.4574H30.7665V15.3817H24.6151Z" fill="white"/>
<path d="M6.15143 15.3817V21.5363H9.23029V18.4574H12.306V15.3817H6.15143Z" fill="white"/>
</svg>
